<svg xmlns="http://www.w3.org/2000/svg" aria-hidden="true" style="position:absolute;width:0;height:0;overflow:hidden">
  <defs>
    <symbol id="icon-youtube" viewBox="0 0 32 32">
      <path fill="none" stroke="#e8e8e2" stroke-width=".727" d="M7.273.364h17.455a6.909 6.909 0 0 1 6.909 6.909v17.455a6.909 6.909 0 0 1-6.909 6.909H7.273a6.909 6.909 0 0 1-6.909-6.909V7.273A6.909 6.909 0 0 1 7.273.364z" style="stroke:var(--color1, #e8e8e2)"/>
      <path fill="#e8e8e2" d="M21.244 9.636c-.865-.051-2.647-.102-5.345-.102h-.356c-2.596 0-4.327.051-5.193.153-1.171.102-1.986.407-2.444.815-.407.356-.713 1.018-.814 1.884-.051.56-.102 1.731-.102 3.513v.255c0 1.68.051 2.851.153 3.411.153.815.407 1.425.916 1.782.509.407 1.375.662 2.596.764.865.051 2.647.102 5.345.102h.356c2.596 0 4.327-.051 5.193-.153 1.171-.102 1.985-.407 2.444-.815.407-.356.713-1.018.814-1.884.051-.56.102-1.731.102-3.513v-.255c0-1.68-.051-2.851-.153-3.411-.153-.815-.407-1.425-.916-1.782-.509-.407-1.375-.662-2.596-.764zm-1.986 6.262-5.6 3.36v-6.72l5.6 3.36z" opacity=".8" style="fill:var(--color1, #e8e8e2)"/>
    </symbol>
    <symbol id="icon-instagram" viewBox="0 0 32 32">
      <path fill="none" stroke="#e8e8e2" stroke-width=".727" d="M7.273.364h17.455a6.909 6.909 0 0 1 6.909 6.909v17.455a6.909 6.909 0 0 1-6.909 6.909H7.273a6.909 6.909 0 0 1-6.909-6.909V7.273A6.909 6.909 0 0 1 7.273.364z" style="stroke:var(--color1, #e8e8e2)"/>
      <path fill="#e8e8e2" d="M24.093 12.663a5.895 5.895 0 0 0-.379-2.001 4.166 4.166 0 0 0-2.382-2.378 5.96 5.96 0 0 0-1.978-.379c-.87-.039-1.146-.05-3.355-.05s-2.492 0-3.356.05a5.99 5.99 0 0 0-1.977.379 4.163 4.163 0 0 0-2.382 2.378 5.916 5.916 0 0 0-.379 1.973c-.039.87-.051 1.145-.051 3.351s0 2.487.051 3.351c.014.676.141 1.342.379 1.975a4.166 4.166 0 0 0 2.383 2.377 5.94 5.94 0 0 0 1.977.406c.871.039 1.147.051 3.356.051s2.492 0 3.356-.051a6 6 0 0 0 1.978-.378 4.172 4.172 0 0 0 2.382-2.378 5.923 5.923 0 0 0 .379-1.975c.039-.869.051-1.144.051-3.351-.002-2.205-.002-2.485-.052-3.35zm-8.099 7.493c-2.31 0-4.182-1.869-4.182-4.175s1.872-4.175 4.182-4.175c2.309 0 4.182 1.869 4.182 4.175s-1.874 4.175-4.182 4.175zm4.348-7.531a.973.973 0 1 1 0-1.948.973.973 0 1 1 0 1.948z" opacity=".8" style="fill:var(--color1, #e8e8e2)"/>
      <path fill="#e8e8e2" d="M15.995 18.53a2.548 2.548 0 1 0 0-5.097 2.548 2.548 0 0 0 0 5.097z" opacity=".8" style="fill:var(--color1, #e8e8e2)"/>
    </symbol>
    <symbol id="icon-facebook" viewBox="0 0 32 32">
      <path fill="none" stroke="#e8e8e2" stroke-width=".727" d="M7.273.364h17.455a6.909 6.909 0 0 1 6.909 6.909v17.455a6.909 6.909 0 0 1-6.909 6.909H7.273a6.909 6.909 0 0 1-6.909-6.909V7.273A6.909 6.909 0 0 1 7.273.364z" style="stroke:var(--color1, #e8e8e2)"/>
      <path fill="#e8e8e2" d="M18.24 8.771h.611v2.291h-.764c-.306 0-.611 0-.764.153-.153.153-.153.305-.153.662v.815h1.68v1.935h-1.68v8.4h-2.596v-8.451h-1.375v-1.935h1.375v-.662c0-1.12.153-1.935.458-2.291.458-.662 1.375-.967 2.749-.967.153.051.305.051.458.051z" opacity=".8" style="fill:var(--color1, #e8e8e2)"/>
    </symbol>
    <symbol id="icon-logo" viewBox="0 0 32 32">
      <path fill="#e8e8e2" d="M32 16c0 8.837-7.163 16-16 16S0 24.837 0 16 7.163 0 16 0s16 7.163 16 16z" style="fill:var(--color1, #e8e8e2)"/>
      <path fill="#6d8434" d="M16.93 8.89a3.363 3.363 0 0 0-1.136-1.067c-1.257-.721-2.876-.594-4.37.243C8.65 9.62 6.833 12.542 6.833 16c0 4.617 3.342 8.344 7.706 9.05.477.077.964.117 1.461.117a9.128 9.128 0 0 0 6.516-2.701 9.142 9.142 0 0 0 2.651-6.537c-.019-1.61-.665-3.586-1.686-5.165-1.017-1.573-2.58-3.007-4.523-2.988-.948.002-1.596.523-2.028 1.115V8.89zm5.546 3.454a3.944 3.944 0 0 0-1.052-.027l-.967-1.625-1.432.85.743 1.25a5.631 5.631 0 0 0-.887.521l-.015-.048c-.223-.675-.652-1.229-1.226-1.78l.003-.017c.058-.269.149-.617.287-.954.311-.763.672-1.073 1.033-1.073h.009c1.076-.012 2.197.814 3.109 2.226a8.6 8.6 0 0 1 .395.677l-.001.001zm-5.134 2.498a4.382 4.382 0 0 0-.833.098 3.127 3.127 0 0 0-.885-.954 2.683 2.683 0 0 0-2.535-.328 11.72 11.72 0 0 0-.27-.151l2.694-2.641-1.167-1.19-3.196 3.133c-.675-.196-1.306-.266-1.872-.188a7.257 7.257 0 0 1 2.962-3.102c1.137-.637 2.114-.602 2.726-.251.583.334 1.068 1.093.946 2.448l-.037.419.315.279c.685.606.97.998 1.093 1.372.087.262.115.58.059 1.056zM15 15.679c-.712.596-1.189 1.432-1.467 2.335l-2.478-2.721-1.232 1.123 3.407 3.74c-.004.993.123 2.01.308 2.929A7.46 7.46 0 0 1 8.5 15.999c0-.867.241-1.339.524-1.546.268-.197.855-.357 2.058.087.435.161.938.408 1.514.766l.418.26.43-.242c.519-.292.916-.188 1.22.025.133.093.248.21.335.329zm1.471 7.806 6.077-6.697-1.234-1.12-2.443 2.692.006-.845-1.667-.012-.019 2.708-2.069 2.281c-.157-.851-.25-1.765-.22-2.622.053-1.462.637-2.664 1.502-3.14.358-.198.991-.275 1.491-.187l.742.129.204-.724c.107-.377.389-.782.831-1.142a3.97 3.97 0 0 1 1.528-.763c.668-.163 1.237-.078 1.612.18.328.225.657.685.688 1.628v.015l.003.133a7.468 7.468 0 0 1-7.029 7.485z" style="fill:var(--color2, #6d8434)"/>
    </symbol>
  </defs>
</svg>
